<mxfile host="app.diagrams.net" modified="2024-05-08T15:43:34.540Z" agent="Mozilla/5.0 (Windows NT 10.0; Win64; x64) AppleWebKit/537.36 (KHTML, like Gecko) Chrome/124.0.0.0 Safari/537.36" etag="UmT6cUdmJb4y7ZL0z77N" version="24.3.1" type="device">
  <diagram name="Seite-1" id="LB2M76eBWK27ISDBQZqY">
    <mxGraphModel dx="1430" dy="763" grid="1" gridSize="10" guides="1" tooltips="1" connect="1" arrows="1" fold="1" page="1" pageScale="1" pageWidth="827" pageHeight="1169" math="0" shadow="0">
      <root>
        <mxCell id="0" />
        <mxCell id="1" parent="0" />
        <mxCell id="eSKFKpBNSHDDiSfOKC7W-1" value="IndexCardOverviewBloc" style="ellipse;whiteSpace=wrap;html=1;fillColor=#20EFC0;" parent="1" vertex="1">
          <mxGeometry x="290" y="30" width="170" height="130" as="geometry" />
        </mxCell>
        <mxCell id="eSKFKpBNSHDDiSfOKC7W-2" value="IndexCardOverview" style="rounded=0;whiteSpace=wrap;html=1;fillColor=#D29FFF;" parent="1" vertex="1">
          <mxGeometry x="20" y="40" width="120" height="100" as="geometry" />
        </mxCell>
        <mxCell id="eSKFKpBNSHDDiSfOKC7W-3" value="" style="endArrow=classic;html=1;rounded=0;exitX=1;exitY=0.5;exitDx=0;exitDy=0;" parent="1" edge="1">
          <mxGeometry width="50" height="50" relative="1" as="geometry">
            <mxPoint x="140" y="90" as="sourcePoint" />
            <mxPoint x="290" y="90" as="targetPoint" />
          </mxGeometry>
        </mxCell>
        <mxCell id="eSKFKpBNSHDDiSfOKC7W-4" value="&lt;div&gt;&lt;font style=&quot;font-size: 10px;&quot;&gt;&lt;b&gt;&amp;lt;&amp;lt;Event&amp;gt;&amp;gt;&lt;/b&gt;&lt;/font&gt;&lt;/div&gt;&lt;span style=&quot;font-size: 10px;&quot;&gt;&lt;b&gt;RemoveIndexCardsById&lt;/b&gt;&lt;/span&gt;" style="text;html=1;align=center;verticalAlign=middle;whiteSpace=wrap;rounded=0;" parent="1" vertex="1">
          <mxGeometry x="150.71" y="50" width="130" height="30" as="geometry" />
        </mxCell>
        <mxCell id="eSKFKpBNSHDDiSfOKC7W-7" value="a)" style="text;html=1;align=center;verticalAlign=middle;whiteSpace=wrap;rounded=0;fontStyle=1;fontSize=14;" parent="1" vertex="1">
          <mxGeometry x="20" width="30" height="20" as="geometry" />
        </mxCell>
        <mxCell id="eSKFKpBNSHDDiSfOKC7W-9" value="IndexCardRepository" style="rounded=0;whiteSpace=wrap;html=1;fillColor=#E4B106;" parent="1" vertex="1">
          <mxGeometry x="580" y="40" width="120" height="100" as="geometry" />
        </mxCell>
        <mxCell id="eSKFKpBNSHDDiSfOKC7W-10" value="" style="endArrow=classic;html=1;rounded=0;exitX=0.949;exitY=0.265;exitDx=0;exitDy=0;entryX=0;entryY=0.25;entryDx=0;entryDy=0;exitPerimeter=0;" parent="1" source="eSKFKpBNSHDDiSfOKC7W-1" target="eSKFKpBNSHDDiSfOKC7W-9" edge="1">
          <mxGeometry width="50" height="50" relative="1" as="geometry">
            <mxPoint x="149.29" y="80" as="sourcePoint" />
            <mxPoint x="305" y="80" as="targetPoint" />
          </mxGeometry>
        </mxCell>
        <mxCell id="eSKFKpBNSHDDiSfOKC7W-11" value="&lt;font style=&quot;font-size: 10px;&quot;&gt;removeIndexCards&lt;/font&gt;" style="edgeLabel;html=1;align=center;verticalAlign=middle;resizable=0;points=[];" parent="eSKFKpBNSHDDiSfOKC7W-10" vertex="1" connectable="0">
          <mxGeometry x="-0.2887" y="2" relative="1" as="geometry">
            <mxPoint x="15" as="offset" />
          </mxGeometry>
        </mxCell>
        <mxCell id="eSKFKpBNSHDDiSfOKC7W-17" value="IndexCardOverviewBloc" style="ellipse;whiteSpace=wrap;html=1;fillColor=#20EFC0;" parent="1" vertex="1">
          <mxGeometry x="290" y="230" width="170" height="130" as="geometry" />
        </mxCell>
        <mxCell id="eSKFKpBNSHDDiSfOKC7W-18" value="IndexCardOverview" style="rounded=0;whiteSpace=wrap;html=1;fillColor=#D29FFF;" parent="1" vertex="1">
          <mxGeometry x="20" y="240" width="120" height="100" as="geometry" />
        </mxCell>
        <mxCell id="eSKFKpBNSHDDiSfOKC7W-19" value="" style="endArrow=classic;html=1;rounded=0;exitX=0;exitY=0;exitDx=0;exitDy=0;entryX=0.5;entryY=0;entryDx=0;entryDy=0;edgeStyle=orthogonalEdgeStyle;curved=1;" parent="1" source="eSKFKpBNSHDDiSfOKC7W-17" target="eSKFKpBNSHDDiSfOKC7W-17" edge="1">
          <mxGeometry width="50" height="50" relative="1" as="geometry">
            <mxPoint x="304.02" y="200" as="sourcePoint" />
            <mxPoint x="459.9999999999999" y="200.03999999999996" as="targetPoint" />
            <Array as="points">
              <mxPoint x="315" y="190" />
            </Array>
          </mxGeometry>
        </mxCell>
        <mxCell id="eSKFKpBNSHDDiSfOKC7W-21" value="" style="endArrow=classic;html=1;rounded=0;entryX=1.001;entryY=0.856;entryDx=0;entryDy=0;entryPerimeter=0;" parent="1" edge="1">
          <mxGeometry width="50" height="50" relative="1" as="geometry">
            <mxPoint x="290" y="290" as="sourcePoint" />
            <mxPoint x="140" y="290" as="targetPoint" />
          </mxGeometry>
        </mxCell>
        <mxCell id="eSKFKpBNSHDDiSfOKC7W-22" value="&lt;div&gt;&lt;font style=&quot;font-size: 10px;&quot;&gt;&lt;b&gt;&amp;lt;&amp;lt;State&amp;gt;&amp;gt;&lt;/b&gt;&lt;/font&gt;&lt;/div&gt;&lt;font style=&quot;font-size: 10px;&quot;&gt;&lt;b&gt;IndexCardsLoading&lt;/b&gt;&lt;/font&gt;" style="text;html=1;align=center;verticalAlign=middle;whiteSpace=wrap;rounded=0;" parent="1" vertex="1">
          <mxGeometry x="150" y="300" width="130" height="30" as="geometry" />
        </mxCell>
        <mxCell id="eSKFKpBNSHDDiSfOKC7W-24" value="b)" style="text;html=1;align=center;verticalAlign=middle;whiteSpace=wrap;rounded=0;fontStyle=1;fontSize=14;" parent="1" vertex="1">
          <mxGeometry x="20" y="185" width="30" height="20" as="geometry" />
        </mxCell>
        <mxCell id="eSKFKpBNSHDDiSfOKC7W-25" value="IndexCardRepository" style="rounded=0;whiteSpace=wrap;html=1;fillColor=#E4B106;" parent="1" vertex="1">
          <mxGeometry x="580" y="240" width="120" height="100" as="geometry" />
        </mxCell>
        <mxCell id="eSKFKpBNSHDDiSfOKC7W-26" value="" style="endArrow=classic;html=1;rounded=0;entryX=0;entryY=0.25;entryDx=0;entryDy=0;" parent="1" edge="1">
          <mxGeometry width="50" height="50" relative="1" as="geometry">
            <mxPoint x="460" y="290" as="sourcePoint" />
            <mxPoint x="580" y="290.28" as="targetPoint" />
          </mxGeometry>
        </mxCell>
        <mxCell id="eSKFKpBNSHDDiSfOKC7W-27" value="&lt;font style=&quot;font-size: 10px;&quot;&gt;fetchIndexCards&lt;/font&gt;" style="edgeLabel;html=1;align=center;verticalAlign=middle;resizable=0;points=[];" parent="eSKFKpBNSHDDiSfOKC7W-26" vertex="1" connectable="0">
          <mxGeometry x="-0.2887" y="2" relative="1" as="geometry">
            <mxPoint x="15" as="offset" />
          </mxGeometry>
        </mxCell>
        <mxCell id="eSKFKpBNSHDDiSfOKC7W-30" value="IndexCardOverviewBloc" style="ellipse;whiteSpace=wrap;html=1;fillColor=#20EFC0;" parent="1" vertex="1">
          <mxGeometry x="290" y="440" width="170" height="130" as="geometry" />
        </mxCell>
        <mxCell id="eSKFKpBNSHDDiSfOKC7W-31" value="IndexCardOverview" style="rounded=0;whiteSpace=wrap;html=1;fillColor=#D29FFF;" parent="1" vertex="1">
          <mxGeometry x="20" y="450" width="120" height="100" as="geometry" />
        </mxCell>
        <mxCell id="eSKFKpBNSHDDiSfOKC7W-34" value="" style="endArrow=classic;html=1;rounded=0;entryX=1.001;entryY=0.856;entryDx=0;entryDy=0;entryPerimeter=0;" parent="1" edge="1">
          <mxGeometry width="50" height="50" relative="1" as="geometry">
            <mxPoint x="290" y="500" as="sourcePoint" />
            <mxPoint x="140" y="500" as="targetPoint" />
          </mxGeometry>
        </mxCell>
        <mxCell id="eSKFKpBNSHDDiSfOKC7W-35" value="&lt;div&gt;&lt;font style=&quot;font-size: 10px;&quot;&gt;&lt;b&gt;&amp;lt;&amp;lt;State&amp;gt;&amp;gt;&lt;/b&gt;&lt;/font&gt;&lt;/div&gt;&lt;font style=&quot;font-size: 10px;&quot;&gt;&lt;b&gt;IndexCardsLoaded&lt;/b&gt;&lt;/font&gt;" style="text;html=1;align=center;verticalAlign=middle;whiteSpace=wrap;rounded=0;" parent="1" vertex="1">
          <mxGeometry x="150" y="510" width="130" height="30" as="geometry" />
        </mxCell>
        <mxCell id="eSKFKpBNSHDDiSfOKC7W-38" value="IndexCardRepository" style="rounded=0;whiteSpace=wrap;html=1;fillColor=#E4B106;" parent="1" vertex="1">
          <mxGeometry x="580" y="450" width="120" height="100" as="geometry" />
        </mxCell>
        <mxCell id="eSKFKpBNSHDDiSfOKC7W-43" value="&lt;div&gt;&lt;font style=&quot;font-size: 10px;&quot;&gt;&lt;b&gt;&amp;lt;&amp;lt;Event&amp;gt;&amp;gt;&lt;/b&gt;&lt;/font&gt;&lt;/div&gt;&lt;span style=&quot;font-size: 10px;&quot;&gt;&lt;b&gt;FetchIndexCards&lt;/b&gt;&lt;/span&gt;" style="text;html=1;align=center;verticalAlign=middle;whiteSpace=wrap;rounded=0;" parent="1" vertex="1">
          <mxGeometry x="210" y="180" width="130" height="30" as="geometry" />
        </mxCell>
        <mxCell id="eSKFKpBNSHDDiSfOKC7W-46" value="" style="endArrow=none;dashed=1;html=1;dashPattern=1 3;strokeWidth=2;rounded=0;entryX=-0.022;entryY=0.694;entryDx=0;entryDy=0;entryPerimeter=0;startArrow=classic;startFill=1;" parent="1" edge="1">
          <mxGeometry width="50" height="50" relative="1" as="geometry">
            <mxPoint x="460" y="499.79999999999995" as="sourcePoint" />
            <mxPoint x="580" y="499.79999999999995" as="targetPoint" />
          </mxGeometry>
        </mxCell>
        <mxCell id="eSKFKpBNSHDDiSfOKC7W-47" value="" style="endArrow=none;dashed=1;html=1;dashPattern=1 3;strokeWidth=2;rounded=0;entryX=-0.022;entryY=0.694;entryDx=0;entryDy=0;entryPerimeter=0;startArrow=classic;startFill=1;exitX=0.972;exitY=0.686;exitDx=0;exitDy=0;exitPerimeter=0;" parent="1" source="eSKFKpBNSHDDiSfOKC7W-1" edge="1">
          <mxGeometry width="50" height="50" relative="1" as="geometry">
            <mxPoint x="460" y="120" as="sourcePoint" />
            <mxPoint x="580" y="120" as="targetPoint" />
          </mxGeometry>
        </mxCell>
        <mxCell id="eSKFKpBNSHDDiSfOKC7W-48" value="c)" style="text;html=1;align=center;verticalAlign=middle;whiteSpace=wrap;rounded=0;fontStyle=1;fontSize=14;" parent="1" vertex="1">
          <mxGeometry x="20" y="400" width="30" height="20" as="geometry" />
        </mxCell>
        <mxCell id="Z6m6FEymFV8EFbqMWm1P-1" value="1." style="text;html=1;align=center;verticalAlign=middle;whiteSpace=wrap;rounded=0;fontStyle=1;fontSize=12;" vertex="1" parent="1">
          <mxGeometry x="200.71" y="30" width="30" height="20" as="geometry" />
        </mxCell>
        <mxCell id="Z6m6FEymFV8EFbqMWm1P-2" value="2." style="text;html=1;align=center;verticalAlign=middle;whiteSpace=wrap;rounded=0;fontStyle=1;fontSize=12;" vertex="1" parent="1">
          <mxGeometry x="500" y="30" width="30" height="20" as="geometry" />
        </mxCell>
        <mxCell id="Z6m6FEymFV8EFbqMWm1P-3" value="3." style="text;html=1;align=center;verticalAlign=middle;whiteSpace=wrap;rounded=0;fontStyle=1;fontSize=12;" vertex="1" parent="1">
          <mxGeometry x="500" y="90" width="30" height="20" as="geometry" />
        </mxCell>
        <mxCell id="Z6m6FEymFV8EFbqMWm1P-4" value="5." style="text;html=1;align=center;verticalAlign=middle;whiteSpace=wrap;rounded=0;fontStyle=1;fontSize=12;" vertex="1" parent="1">
          <mxGeometry x="320" y="180" width="30" height="20" as="geometry" />
        </mxCell>
        <mxCell id="Z6m6FEymFV8EFbqMWm1P-5" value="4." style="text;html=1;align=center;verticalAlign=middle;whiteSpace=wrap;rounded=0;fontStyle=1;fontSize=12;" vertex="1" parent="1">
          <mxGeometry x="200" y="250" width="30" height="20" as="geometry" />
        </mxCell>
        <mxCell id="Z6m6FEymFV8EFbqMWm1P-6" value="6." style="text;html=1;align=center;verticalAlign=middle;whiteSpace=wrap;rounded=0;fontStyle=1;fontSize=12;" vertex="1" parent="1">
          <mxGeometry x="510" y="260" width="30" height="20" as="geometry" />
        </mxCell>
        <mxCell id="Z6m6FEymFV8EFbqMWm1P-7" value="7." style="text;html=1;align=center;verticalAlign=middle;whiteSpace=wrap;rounded=0;fontStyle=1;fontSize=12;" vertex="1" parent="1">
          <mxGeometry x="510" y="470" width="30" height="20" as="geometry" />
        </mxCell>
        <mxCell id="Z6m6FEymFV8EFbqMWm1P-8" value="8." style="text;html=1;align=center;verticalAlign=middle;whiteSpace=wrap;rounded=0;fontStyle=1;fontSize=12;" vertex="1" parent="1">
          <mxGeometry x="200.70999999999998" y="470" width="30" height="20" as="geometry" />
        </mxCell>
      </root>
    </mxGraphModel>
  </diagram>
</mxfile>
